<svg xmlns="http://www.w3.org/2000/svg" width="36" height="36" viewBox="0 0 36 36"><defs><style>.a{fill:#ea1b23;}</style></defs><g transform="translate(0 0)"><path class="a" d="M35.794,6.6,29.4.206A.7.7,0,0,0,28.9,0H8.016A2.112,2.112,0,0,0,5.906,2.109V3.45A9.3,9.3,0,0,0,0,12.1a.7.7,0,0,0,.7.7H9.288a.7.7,0,0,0,.7-.7V3.516a.7.7,0,0,0-.7-.7,9.284,9.284,0,0,0-1.975.212V2.109a.7.7,0,0,1,.7-.7H28.2V5.7A2.112,2.112,0,0,0,30.3,7.8h4.289V33.891a.7.7,0,0,1-.7.7H8.016a.7.7,0,0,1-.7-.7V27.867a.7.7,0,1,0-1.406,0v6.023A2.112,2.112,0,0,0,8.016,36H33.891A2.112,2.112,0,0,0,36,33.891V7.1A.7.7,0,0,0,35.794,6.6ZM8.584,4.25V11.4H1.437A7.9,7.9,0,0,1,8.584,4.25ZM30.3,6.4a.7.7,0,0,1-.7-.7V2.4l4,4Z" transform="translate(0 0)"/></g><g transform="translate(5.906 24.609)"><path class="a" d="M85.2,350.206a.7.7,0,1,0,.206.5A.708.708,0,0,0,85.2,350.206Z" transform="translate(-84 -350)"/></g><g transform="translate(2.519 5.331)"><path class="a" d="M45.107,75.819a.7.7,0,0,0-.7.7V84.4H36.522a.7.7,0,0,0-.7.7,9.288,9.288,0,1,0,9.288-9.288Zm.7,1.437a7.846,7.846,0,0,1,4.348,1.8L45.81,83.409Zm-.7,15.732a7.892,7.892,0,0,1-7.85-7.178h7.85a.7.7,0,0,0,.5-.206h0l5.548-5.548a7.877,7.877,0,0,1-6.046,12.932Z" transform="translate(-35.819 -75.819)"/></g><g transform="translate(10.821 22.191)"><path class="a" d="M173.886,315.605a2.109,2.109,0,0,0-1.943,2.931l-4.051,4.051a2.106,2.106,0,0,0-1.821-.009l-2.69-2.69A2.109,2.109,0,1,0,159.5,320l-2.58,2.58a2.11,2.11,0,1,0,1,.993l2.566-2.566a2.1,2.1,0,0,0,1.975-.057l2.614,2.614a2.11,2.11,0,1,0,3.808.02l4.013-4.013a2.109,2.109,0,1,0,.992-3.97Zm-17.871,9.586a.7.7,0,1,1,.486-1.21l.008.009.01.009a.7.7,0,0,1-.505,1.191Zm5.4-5.367a.7.7,0,1,1,.7-.7A.7.7,0,0,1,161.416,319.824Zm5.555,5.364a.7.7,0,1,1,.7-.7A.7.7,0,0,1,166.971,325.188Zm6.914-6.771a.7.7,0,1,1,.7-.7A.7.7,0,0,1,173.885,318.417Z" transform="translate(-153.905 -315.605)"/></g><g transform="translate(22.873 16.523)"><path class="a" d="M329.725,235h-3.711a.7.7,0,1,0,0,1.406h3.711a.7.7,0,1,0,0-1.406Z" transform="translate(-325.311 -235)"/></g><g transform="translate(29.786 16.523)"><path class="a" d="M424.82,235.206a.7.7,0,1,0,.206.5A.708.708,0,0,0,424.82,235.206Z" transform="translate(-423.62 -235)"/></g><g transform="translate(22.873 9.773)"><path class="a" d="M334.6,139h-8.589a.7.7,0,1,0,0,1.406H334.6a.7.7,0,1,0,0-1.406Z" transform="translate(-325.311 -139)"/></g><g transform="translate(22.873 13.148)"><path class="a" d="M334.6,187h-8.589a.7.7,0,1,0,0,1.406H334.6a.7.7,0,1,0,0-1.406Z" transform="translate(-325.311 -187)"/></g></svg>