<svg xmlns="http://www.w3.org/2000/svg" width="36" height="36.002" viewBox="0 0 36 36.002"><defs><style>.a{fill:#ea1b23;}</style></defs><g transform="translate(-2 -2)"><path class="a" d="M33.2,19.159V9.8A1.8,1.8,0,0,0,32,8.11V6.2a1.8,1.8,0,0,0-1.8-1.8H13.4a.6.6,0,0,1-.6-.6A1.8,1.8,0,0,0,11,2H3.8A1.8,1.8,0,0,0,2,3.8V26.6a1.8,1.8,0,0,0,1.8,1.8H17.63A10.193,10.193,0,1,0,33.2,19.159ZM3.2,26.6V3.8a.6.6,0,0,1,.6-.6H11a.6.6,0,0,1,.6.6,1.8,1.8,0,0,0,1.8,1.8H30.2a.6.6,0,0,1,.6.6V8H8.6a3,3,0,0,0-3,3V25.4a2.969,2.969,0,0,0,.616,1.8H3.8A.6.6,0,0,1,3.2,26.6Zm3.6-1.2V11A1.8,1.8,0,0,1,8.6,9.2H31.4a.6.6,0,0,1,.6.6v8.715A10.168,10.168,0,0,0,17.63,27.2H8.6A1.8,1.8,0,0,1,6.8,25.4Zm21,11.4a9,9,0,1,1,9-9,9,9,0,0,1-9,9Z" transform="translate(0)"/><path class="a" d="M46.454,38.856a.6.6,0,0,0-.638.083L43.2,41.119V34.6a.6.6,0,0,0-.6-.6H40.2a.6.6,0,0,0-.6.6v6.519l-2.616-2.18A.6.6,0,0,0,36,39.4v3a.6.6,0,0,0,.2.451l4.8,4.2a.6.6,0,0,0,.791,0l4.8-4.2a.6.6,0,0,0,.2-.451v-3A.6.6,0,0,0,46.454,38.856ZM45.6,42.127,41.4,45.8l-4.2-3.675V40.681l2.616,2.18A.6.6,0,0,0,40.8,42.4V35.2H42v7.2a.6.6,0,0,0,.984.461l2.616-2.18Z" transform="translate(-13.601 -12.801)"/><path class="a" d="M12.6,16a.6.6,0,0,0-.6.6V19h1.2V17.2H15V16Z" transform="translate(-4 -5.6)"/><rect class="a" width="1.2" height="1.2" transform="translate(8 14.6)"/></g></svg>