<svg xmlns="http://www.w3.org/2000/svg" width="36" height="36" viewBox="0 0 36 36"><defs><style>.a{fill:#ea1b23;}</style></defs><g transform="translate(0 -1)"><g transform="translate(0 1)"><path class="a" d="M59.24,54.935l1.041-1.041-.821-.821-1.041,1.041-1.1-1.1a10.965,10.965,0,0,0,1.386-5.341c0-.165-.017-.326-.025-.49a6.04,6.04,0,0,0,4.67-5.9H62.194a4.885,4.885,0,0,1-3.622,4.732,11.039,11.039,0,0,0-10.894-9.377c-.165,0-.326.017-.49.025A6.04,6.04,0,0,0,41.29,32v1.161a4.885,4.885,0,0,1,4.732,3.622,11.039,11.039,0,0,0-9.377,10.894c0,.165.017.326.025.49a6.04,6.04,0,0,0-4.67,5.9h1.161a4.885,4.885,0,0,1,3.622-4.732,11.009,11.009,0,0,0,16.235,7.991l1.1,1.1L53.073,59.46l.821.821,1.041-1.041,5.546,5.546a3.044,3.044,0,0,0,4.305-4.3ZM47.677,37.806a9.877,9.877,0,0,1,9.754,8.431l-1.144.19a8.714,8.714,0,0,0-8.609-7.46c-.03,0-.059,0-.088,0L47.4,37.821C47.492,37.818,47.583,37.806,47.677,37.806Zm0,2.323a7.548,7.548,0,1,1-7.548,7.548A7.557,7.557,0,0,1,47.677,40.129Zm-9.871,7.548a9.877,9.877,0,0,1,8.431-9.754l.19,1.144a8.714,8.714,0,0,0-7.46,8.609c0,.03,0,.059,0,.088l-1.151.192C37.818,47.863,37.806,47.772,37.806,47.677Zm9.871,9.871a9.877,9.877,0,0,1-9.754-8.431l1.144-.19a8.7,8.7,0,0,0,17.319-1.25c0-.03,0-.059,0-.088l1.151-.192c0,.094.015.185.015.28A9.882,9.882,0,0,1,47.677,57.548Zm6.346-.862a11.109,11.109,0,0,0,2.663-2.663l.912.912L54.935,57.6Zm8.61,7.829a1.871,1.871,0,0,1-1.331-.551l-5.546-5.546,2.663-2.663L63.965,61.3a1.883,1.883,0,0,1-1.331,3.214Z" transform="translate(-29.677 -29.677)"/><path class="a" d="M357.226,10.452A5.226,5.226,0,1,0,352,5.226,5.231,5.231,0,0,0,357.226,10.452Zm1.742-1.559a4.013,4.013,0,0,1-3.484,0V8.129a1.742,1.742,0,0,1,3.484,0Zm-2.9-4.828a1.161,1.161,0,1,1,1.161,1.161A1.162,1.162,0,0,1,356.065,4.065Zm1.161-2.9a4.061,4.061,0,0,1,2.9,6.91,2.9,2.9,0,0,0-1.275-2.349,2.323,2.323,0,1,0-3.245,0,2.9,2.9,0,0,0-1.275,2.349,4.061,4.061,0,0,1,2.9-6.91Z" transform="translate(-326.452)"/><path class="a" d="M5.226,10.452A5.226,5.226,0,1,0,0,5.226,5.231,5.231,0,0,0,5.226,10.452ZM6.968,8.893a4.013,4.013,0,0,1-3.484,0V8.129a1.742,1.742,0,1,1,3.484,0Zm-2.9-4.828A1.161,1.161,0,1,1,5.226,5.226,1.162,1.162,0,0,1,4.065,4.065Zm1.161-2.9a4.061,4.061,0,0,1,2.9,6.91A2.9,2.9,0,0,0,6.848,5.722a2.323,2.323,0,1,0-3.245,0A2.9,2.9,0,0,0,2.328,8.071a4.061,4.061,0,0,1,2.9-6.91Z"/><path class="a" d="M5.226,352a5.226,5.226,0,1,0,5.226,5.226A5.231,5.231,0,0,0,5.226,352Zm1.742,8.893a4.013,4.013,0,0,1-3.484,0v-.764a1.742,1.742,0,1,1,3.484,0Zm-2.9-4.828a1.161,1.161,0,1,1,1.161,1.161A1.162,1.162,0,0,1,4.065,356.065Zm4.059,4.006a2.9,2.9,0,0,0-1.275-2.349,2.323,2.323,0,1,0-3.245,0,2.9,2.9,0,0,0-1.275,2.349,4.065,4.065,0,1,1,5.795,0Z" transform="translate(0 -326.452)"/><path class="a" d="M160,172.645v4.064h12.774v-6.387H169.29v5.226h-1.161V168h-3.484v7.548h-1.161v-2.9Zm10.452-1.161h1.161v4.065h-1.161Zm-4.645-2.323h1.161v6.387h-1.161Zm-3.484,6.387h-1.161v-1.742h1.161Z" transform="translate(-148.387 -155.806)"/></g></g></svg>